# File produced by Open Asset Import Library (http://www.assimp.sf.net)
# (assimp v5.3.0)

mtllib from_stl.mtl

# 98 vertex positions
v -100 49.9999924 -50.0000076
v -100 99.9999924 -50.0000153
v -100 99.9999847 -100.000015
v -100 49.9999847 -100.000008
v 50 49.9999847 -100.000008
v 50 99.9999847 -100.000015
v 100 99.9999847 -100.000015
v 100 49.9999847 -100.000008
v 100 50.0000076 49.9999924
v 100 100.000008 49.9999847
v 100 100.000015 99.9999847
v 100 50.0000153 99.9999924
v -50 50.0000153 99.9999924
v -50 100.000015 99.9999847
v -100 100.000015 99.9999847
v -100 50.0000153 99.9999924
v 50 -99.9999924 50.0000153
v 100 -99.9999924 50.0000153
v 100 -99.9999847 100.000015
v 50 -99.9999847 100.000015
v -50 100.000008 49.9999847
v -100 100.000008 49.9999847
v 50 100.000008 49.9999847
v 50 100.000015 99.9999847
v 0 100.000008 49.9999847
v 0 100.000015 99.9999847
v 50 99.9999924 -50.0000153
v 100 99.9999924 -50.0000153
v 50 100 -1.62920678e-05
v 100 100 -1.62920678e-05
v 0 99.9999847 -100.000015
v 0 99.9999924 -50.0000153
v 0 100 -1.62920678e-05
v -50 99.9999847 -100.000015
v -50 99.9999924 -50.0000153
v -50 100 -1.62920678e-05
v -100 100 -1.62920678e-05
v -100 -99.9999924 50.0000153
v -50 -99.9999924 50.0000153
v -50 -99.9999847 100.000015
v -100 -99.9999847 100.000015
v 0 -99.9999924 50.0000153
v 0 -99.9999847 100.000015
v -100 -100.000015 -99.9999847
v -50 -100.000015 -99.9999847
v -50 -100.000008 -49.9999847
v -100 -100.000008 -49.9999847
v -50 -100 1.62920678e-05
v -100 -100 1.62920678e-05
v 0 -100.000015 -99.9999847
v 0 -100.000008 -49.9999847
v 0 -100 1.62920678e-05
v 50 -100.000015 -99.9999847
v 50 -100.000008 -49.9999847
v 50 -100 1.62920678e-05
v 100 -100.000015 -99.9999847
v 100 -100.000008 -49.9999847
v 100 -100 1.62920678e-05
v -50 -49.9999847 100.000008
v -100 -49.9999847 100.000008
v -50 1.62920678e-05 100
v -100 1.62920678e-05 100
v 100 -49.9999847 100.000008
v 50 -49.9999847 100.000008
v 0 -49.9999847 100.000008
v 100 1.62920678e-05 100
v 50 1.62920678e-05 100
v 0 1.62920678e-05 100
v 50 50.0000153 99.9999924
v 0 50.0000153 99.9999924
v 100 -49.9999924 50.0000076
v 100 8.14603391e-06 50
v 100 -50.0000153 -99.9999924
v 100 -50.0000076 -49.9999924
v 100 -50 8.14603391e-06
v 100 -1.62920678e-05 -100
v 100 -8.14603391e-06 -50
v 100 0 0
v 100 49.9999924 -50.0000076
v 100 50 -8.14603391e-06
v 50 -50.0000153 -99.9999924
v 50 -1.62920678e-05 -100
v -100 -50.0000153 -99.9999924
v -50 -50.0000153 -99.9999924
v 0 -50.0000153 -99.9999924
v -100 -1.62920678e-05 -100
v -50 -1.62920678e-05 -100
v 0 -1.62920678e-05 -100
v -50 49.9999847 -100.000008
v 0 49.9999847 -100.000008
v -100 -50.0000076 -49.9999924
v -100 -8.14603391e-06 -50
v -100 -49.9999924 50.0000076
v -100 -50 8.14603391e-06
v -100 8.14603391e-06 50
v -100 0 0
v -100 50.0000076 49.9999924
v -100 50 -8.14603391e-06

# 0 UV coordinates

# 6 vertex normals
vn -1 0 0
vn 0 -1.62920671e-07 -1
vn 1 0 0
vn 0 1.62920671e-07 1
vn 0 -1 1.62920671e-07
vn 0 1 -1.62920671e-07

# Mesh 'AssimpScene' with 192 faces
g AssimpScene
usemtl DefaultMaterial
f  1//1 2//1 3//1
f  1//1 3//1 4//1
f  5//2 6//2 7//2
f  5//2 7//2 8//2
f  9//3 10//3 11//3
f  9//3 11//3 12//3
f  13//4 14//4 15//4
f  13//4 15//4 16//4
f  17//5 18//5 19//5
f  17//5 19//5 20//5
f  21//6 22//6 15//6
f  21//6 15//6 14//6
f  10//6 23//6 24//6
f  10//6 24//6 11//6
f  23//6 25//6 26//6
f  23//6 26//6 24//6
f  25//6 21//6 14//6
f  25//6 14//6 26//6
f  7//6 6//6 27//6
f  7//6 27//6 28//6
f  28//6 27//6 29//6
f  28//6 29//6 30//6
f  30//6 29//6 23//6
f  30//6 23//6 10//6
f  6//6 31//6 32//6
f  6//6 32//6 27//6
f  27//6 32//6 33//6
f  27//6 33//6 29//6
f  29//6 33//6 25//6
f  29//6 25//6 23//6
f  31//6 34//6 35//6
f  31//6 35//6 32//6
f  32//6 35//6 36//6
f  32//6 36//6 33//6
f  33//6 36//6 21//6
f  33//6 21//6 25//6
f  34//6 3//6 2//6
f  34//6 2//6 35//6
f  35//6 2//6 37//6
f  35//6 37//6 36//6
f  36//6 37//6 22//6
f  36//6 22//6 21//6
f  38//5 39//5 40//5
f  38//5 40//5 41//5
f  39//5 42//5 43//5
f  39//5 43//5 40//5
f  42//5 17//5 20//5
f  42//5 20//5 43//5
f  44//5 45//5 46//5
f  44//5 46//5 47//5
f  47//5 46//5 48//5
f  47//5 48//5 49//5
f  49//5 48//5 39//5
f  49//5 39//5 38//5
f  45//5 50//5 51//5
f  45//5 51//5 46//5
f  46//5 51//5 52//5
f  46//5 52//5 48//5
f  48//5 52//5 42//5
f  48//5 42//5 39//5
f  50//5 53//5 54//5
f  50//5 54//5 51//5
f  51//5 54//5 55//5
f  51//5 55//5 52//5
f  52//5 55//5 17//5
f  52//5 17//5 42//5
f  53//5 56//5 57//5
f  53//5 57//5 54//5
f  54//5 57//5 58//5
f  54//5 58//5 55//5
f  55//5 58//5 18//5
f  55//5 18//5 17//5
f  40//4 59//4 60//4
f  40//4 60//4 41//4
f  59//4 61//4 62//4
f  59//4 62//4 60//4
f  61//4 13//4 16//4
f  61//4 16//4 62//4
f  19//4 63//4 64//4
f  19//4 64//4 20//4
f  20//4 64//4 65//4
f  20//4 65//4 43//4
f  43//4 65//4 59//4
f  43//4 59//4 40//4
f  63//4 66//4 67//4
f  63//4 67//4 64//4
f  64//4 67//4 68//4
f  64//4 68//4 65//4
f  65//4 68//4 61//4
f  65//4 61//4 59//4
f  66//4 12//4 69//4
f  66//4 69//4 67//4
f  67//4 69//4 70//4
f  67//4 70//4 68//4
f  68//4 70//4 13//4
f  68//4 13//4 61//4
f  12//4 11//4 24//4
f  12//4 24//4 69//4
f  69//4 24//4 26//4
f  69//4 26//4 70//4
f  70//4 26//4 14//4
f  70//4 14//4 13//4
f  18//3 71//3 63//3
f  18//3 63//3 19//3
f  71//3 72//3 66//3
f  71//3 66//3 63//3
f  72//3 9//3 12//3
f  72//3 12//3 66//3
f  56//3 73//3 74//3
f  56//3 74//3 57//3
f  57//3 74//3 75//3
f  57//3 75//3 58//3
f  58//3 75//3 71//3
f  58//3 71//3 18//3
f  73//3 76//3 77//3
f  73//3 77//3 74//3
f  74//3 77//3 78//3
f  74//3 78//3 75//3
f  75//3 78//3 72//3
f  75//3 72//3 71//3
f  76//3 8//3 79//3
f  76//3 79//3 77//3
f  77//3 79//3 80//3
f  77//3 80//3 78//3
f  78//3 80//3 9//3
f  78//3 9//3 72//3
f  8//3 7//3 28//3
f  8//3 28//3 79//3
f  79//3 28//3 30//3
f  79//3 30//3 80//3
f  80//3 30//3 10//3
f  80//3 10//3 9//3
f  53//2 81//2 73//2
f  53//2 73//2 56//2
f  81//2 82//2 76//2
f  81//2 76//2 73//2
f  82//2 5//2 8//2
f  82//2 8//2 76//2
f  44//2 83//2 84//2
f  44//2 84//2 45//2
f  45//2 84//2 85//2
f  45//2 85//2 50//2
f  50//2 85//2 81//2
f  50//2 81//2 53//2
f  83//2 86//2 87//2
f  83//2 87//2 84//2
f  84//2 87//2 88//2
f  84//2 88//2 85//2
f  85//2 88//2 82//2
f  85//2 82//2 81//2
f  86//2 4//2 89//2
f  86//2 89//2 87//2
f  87//2 89//2 90//2
f  87//2 90//2 88//2
f  88//2 90//2 5//2
f  88//2 5//2 82//2
f  4//2 3//2 34//2
f  4//2 34//2 89//2
f  89//2 34//2 31//2
f  89//2 31//2 90//2
f  90//2 31//2 6//2
f  90//2 6//2 5//2
f  47//1 91//1 83//1
f  47//1 83//1 44//1
f  91//1 92//1 86//1
f  91//1 86//1 83//1
f  92//1 1//1 4//1
f  92//1 4//1 86//1
f  41//1 60//1 93//1
f  41//1 93//1 38//1
f  38//1 93//1 94//1
f  38//1 94//1 49//1
f  49//1 94//1 91//1
f  49//1 91//1 47//1
f  60//1 62//1 95//1
f  60//1 95//1 93//1
f  93//1 95//1 96//1
f  93//1 96//1 94//1
f  94//1 96//1 92//1
f  94//1 92//1 91//1
f  62//1 16//1 97//1
f  62//1 97//1 95//1
f  95//1 97//1 98//1
f  95//1 98//1 96//1
f  96//1 98//1 1//1
f  96//1 1//1 92//1
f  16//1 15//1 22//1
f  16//1 22//1 97//1
f  97//1 22//1 37//1
f  97//1 37//1 98//1
f  98//1 37//1 2//1
f  98//1 2//1 1//1

