solid AssimpScene
 facet normal -1 0 0
  outer loop
  vertex -100 49.9999924 -50.0000076
  vertex -100 99.9999924 -50.0000153
  vertex -100 99.9999847 -100.000015
  endloop
 endfacet

 facet normal -1 0 0
  outer loop
  vertex -100 49.9999924 -50.0000076
  vertex -100 99.9999847 -100.000015
  vertex -100 49.9999847 -100.000008
  endloop
 endfacet

 facet normal 0 -1.62920671e-07 -1
  outer loop
  vertex 50 49.9999847 -100.000008
  vertex 50 99.9999847 -100.000015
  vertex 100 99.9999847 -100.000015
  endloop
 endfacet

 facet normal 0 -1.62920671e-07 -1
  outer loop
  vertex 50 49.9999847 -100.000008
  vertex 100 99.9999847 -100.000015
  vertex 100 49.9999847 -100.000008
  endloop
 endfacet

 facet normal 1 0 0
  outer loop
  vertex 100 50.0000076 49.9999924
  vertex 100 100.000008 49.9999847
  vertex 100 100.000015 99.9999847
  endloop
 endfacet

 facet normal 1 0 0
  outer loop
  vertex 100 50.0000076 49.9999924
  vertex 100 100.000015 99.9999847
  vertex 100 50.0000153 99.9999924
  endloop
 endfacet

 facet normal 0 1.62920671e-07 1
  outer loop
  vertex -50 50.0000153 99.9999924
  vertex -50 100.000015 99.9999847
  vertex -100 100.000015 99.9999847
  endloop
 endfacet

 facet normal 0 1.62920671e-07 1
  outer loop
  vertex -50 50.0000153 99.9999924
  vertex -100 100.000015 99.9999847
  vertex -100 50.0000153 99.9999924
  endloop
 endfacet

 facet normal 0 -1 1.62920671e-07
  outer loop
  vertex 50 -99.9999924 50.0000153
  vertex 100 -99.9999924 50.0000153
  vertex 100 -99.9999847 100.000015
  endloop
 endfacet

 facet normal 0 -1 1.62920671e-07
  outer loop
  vertex 50 -99.9999924 50.0000153
  vertex 100 -99.9999847 100.000015
  vertex 50 -99.9999847 100.000015
  endloop
 endfacet

 facet normal 0 1 -1.62920671e-07
  outer loop
  vertex -50 100.000008 49.9999847
  vertex -100 100.000008 49.9999847
  vertex -100 100.000015 99.9999847
  endloop
 endfacet

 facet normal 0 1 -1.62920671e-07
  outer loop
  vertex -50 100.000008 49.9999847
  vertex -100 100.000015 99.9999847
  vertex -50 100.000015 99.9999847
  endloop
 endfacet

 facet normal 0 1 -1.62920671e-07
  outer loop
  vertex 100 100.000008 49.9999847
  vertex 50 100.000008 49.9999847
  vertex 50 100.000015 99.9999847
  endloop
 endfacet

 facet normal 0 1 -1.62920671e-07
  outer loop
  vertex 100 100.000008 49.9999847
  vertex 50 100.000015 99.9999847
  vertex 100 100.000015 99.9999847
  endloop
 endfacet

 facet normal 0 1 -1.62920671e-07
  outer loop
  vertex 50 100.000008 49.9999847
  vertex 0 100.000008 49.9999847
  vertex 0 100.000015 99.9999847
  endloop
 endfacet

 facet normal 0 1 -1.62920671e-07
  outer loop
  vertex 50 100.000008 49.9999847
  vertex 0 100.000015 99.9999847
  vertex 50 100.000015 99.9999847
  endloop
 endfacet

 facet normal 0 1 -1.62920671e-07
  outer loop
  vertex 0 100.000008 49.9999847
  vertex -50 100.000008 49.9999847
  vertex -50 100.000015 99.9999847
  endloop
 endfacet

 facet normal 0 1 -1.62920671e-07
  outer loop
  vertex 0 100.000008 49.9999847
  vertex -50 100.000015 99.9999847
  vertex 0 100.000015 99.9999847
  endloop
 endfacet

 facet normal 0 1 -1.62920671e-07
  outer loop
  vertex 100 99.9999847 -100.000015
  vertex 50 99.9999847 -100.000015
  vertex 50 99.9999924 -50.0000153
  endloop
 endfacet

 facet normal 0 1 -1.62920671e-07
  outer loop
  vertex 100 99.9999847 -100.000015
  vertex 50 99.9999924 -50.0000153
  vertex 100 99.9999924 -50.0000153
  endloop
 endfacet

 facet normal 0 1 -1.62920671e-07
  outer loop
  vertex 100 99.9999924 -50.0000153
  vertex 50 99.9999924 -50.0000153
  vertex 50 100 -1.62920678e-05
  endloop
 endfacet

 facet normal 0 1 -1.62920671e-07
  outer loop
  vertex 100 99.9999924 -50.0000153
  vertex 50 100 -1.62920678e-05
  vertex 100 100 -1.62920678e-05
  endloop
 endfacet

 facet normal 0 1 -1.62920671e-07
  outer loop
  vertex 100 100 -1.62920678e-05
  vertex 50 100 -1.62920678e-05
  vertex 50 100.000008 49.9999847
  endloop
 endfacet

 facet normal 0 1 -1.62920671e-07
  outer loop
  vertex 100 100 -1.62920678e-05
  vertex 50 100.000008 49.9999847
  vertex 100 100.000008 49.9999847
  endloop
 endfacet

 facet normal 0 1 -1.62920671e-07
  outer loop
  vertex 50 99.9999847 -100.000015
  vertex 0 99.9999847 -100.000015
  vertex 0 99.9999924 -50.0000153
  endloop
 endfacet

 facet normal 0 1 -1.62920671e-07
  outer loop
  vertex 50 99.9999847 -100.000015
  vertex 0 99.9999924 -50.0000153
  vertex 50 99.9999924 -50.0000153
  endloop
 endfacet

 facet normal 0 1 -1.62920671e-07
  outer loop
  vertex 50 99.9999924 -50.0000153
  vertex 0 99.9999924 -50.0000153
  vertex 0 100 -1.62920678e-05
  endloop
 endfacet

 facet normal 0 1 -1.62920671e-07
  outer loop
  vertex 50 99.9999924 -50.0000153
  vertex 0 100 -1.62920678e-05
  vertex 50 100 -1.62920678e-05
  endloop
 endfacet

 facet normal 0 1 -1.62920671e-07
  outer loop
  vertex 50 100 -1.62920678e-05
  vertex 0 100 -1.62920678e-05
  vertex 0 100.000008 49.9999847
  endloop
 endfacet

 facet normal 0 1 -1.62920671e-07
  outer loop
  vertex 50 100 -1.62920678e-05
  vertex 0 100.000008 49.9999847
  vertex 50 100.000008 49.9999847
  endloop
 endfacet

 facet normal 0 1 -1.62920671e-07
  outer loop
  vertex 0 99.9999847 -100.000015
  vertex -50 99.9999847 -100.000015
  vertex -50 99.9999924 -50.0000153
  endloop
 endfacet

 facet normal 0 1 -1.62920671e-07
  outer loop
  vertex 0 99.9999847 -100.000015
  vertex -50 99.9999924 -50.0000153
  vertex 0 99.9999924 -50.0000153
  endloop
 endfacet

 facet normal 0 1 -1.62920671e-07
  outer loop
  vertex 0 99.9999924 -50.0000153
  vertex -50 99.9999924 -50.0000153
  vertex -50 100 -1.62920678e-05
  endloop
 endfacet

 facet normal 0 1 -1.62920671e-07
  outer loop
  vertex 0 99.9999924 -50.0000153
  vertex -50 100 -1.62920678e-05
  vertex 0 100 -1.62920678e-05
  endloop
 endfacet

 facet normal 0 1 -1.62920671e-07
  outer loop
  vertex 0 100 -1.62920678e-05
  vertex -50 100 -1.62920678e-05
  vertex -50 100.000008 49.9999847
  endloop
 endfacet

 facet normal 0 1 -1.62920671e-07
  outer loop
  vertex 0 100 -1.62920678e-05
  vertex -50 100.000008 49.9999847
  vertex 0 100.000008 49.9999847
  endloop
 endfacet

 facet normal 0 1 -1.62920671e-07
  outer loop
  vertex -50 99.9999847 -100.000015
  vertex -100 99.9999847 -100.000015
  vertex -100 99.9999924 -50.0000153
  endloop
 endfacet

 facet normal 0 1 -1.62920671e-07
  outer loop
  vertex -50 99.9999847 -100.000015
  vertex -100 99.9999924 -50.0000153
  vertex -50 99.9999924 -50.0000153
  endloop
 endfacet

 facet normal 0 1 -1.62920671e-07
  outer loop
  vertex -50 99.9999924 -50.0000153
  vertex -100 99.9999924 -50.0000153
  vertex -100 100 -1.62920678e-05
  endloop
 endfacet

 facet normal 0 1 -1.62920671e-07
  outer loop
  vertex -50 99.9999924 -50.0000153
  vertex -100 100 -1.62920678e-05
  vertex -50 100 -1.62920678e-05
  endloop
 endfacet

 facet normal 0 1 -1.62920671e-07
  outer loop
  vertex -50 100 -1.62920678e-05
  vertex -100 100 -1.62920678e-05
  vertex -100 100.000008 49.9999847
  endloop
 endfacet

 facet normal 0 1 -1.62920671e-07
  outer loop
  vertex -50 100 -1.62920678e-05
  vertex -100 100.000008 49.9999847
  vertex -50 100.000008 49.9999847
  endloop
 endfacet

 facet normal 0 -1 1.62920671e-07
  outer loop
  vertex -100 -99.9999924 50.0000153
  vertex -50 -99.9999924 50.0000153
  vertex -50 -99.9999847 100.000015
  endloop
 endfacet

 facet normal 0 -1 1.62920671e-07
  outer loop
  vertex -100 -99.9999924 50.0000153
  vertex -50 -99.9999847 100.000015
  vertex -100 -99.9999847 100.000015
  endloop
 endfacet

 facet normal 0 -1 1.62920671e-07
  outer loop
  vertex -50 -99.9999924 50.0000153
  vertex 0 -99.9999924 50.0000153
  vertex 0 -99.9999847 100.000015
  endloop
 endfacet

 facet normal 0 -1 1.62920671e-07
  outer loop
  vertex -50 -99.9999924 50.0000153
  vertex 0 -99.9999847 100.000015
  vertex -50 -99.9999847 100.000015
  endloop
 endfacet

 facet normal 0 -1 1.62920671e-07
  outer loop
  vertex 0 -99.9999924 50.0000153
  vertex 50 -99.9999924 50.0000153
  vertex 50 -99.9999847 100.000015
  endloop
 endfacet

 facet normal 0 -1 1.62920671e-07
  outer loop
  vertex 0 -99.9999924 50.0000153
  vertex 50 -99.9999847 100.000015
  vertex 0 -99.9999847 100.000015
  endloop
 endfacet

 facet normal 0 -1 1.62920671e-07
  outer loop
  vertex -100 -100.000015 -99.9999847
  vertex -50 -100.000015 -99.9999847
  vertex -50 -100.000008 -49.9999847
  endloop
 endfacet

 facet normal 0 -1 1.62920671e-07
  outer loop
  vertex -100 -100.000015 -99.9999847
  vertex -50 -100.000008 -49.9999847
  vertex -100 -100.000008 -49.9999847
  endloop
 endfacet

 facet normal 0 -1 1.62920671e-07
  outer loop
  vertex -100 -100.000008 -49.9999847
  vertex -50 -100.000008 -49.9999847
  vertex -50 -100 1.62920678e-05
  endloop
 endfacet

 facet normal 0 -1 1.62920671e-07
  outer loop
  vertex -100 -100.000008 -49.9999847
  vertex -50 -100 1.62920678e-05
  vertex -100 -100 1.62920678e-05
  endloop
 endfacet

 facet normal 0 -1 1.62920671e-07
  outer loop
  vertex -100 -100 1.62920678e-05
  vertex -50 -100 1.62920678e-05
  vertex -50 -99.9999924 50.0000153
  endloop
 endfacet

 facet normal 0 -1 1.62920671e-07
  outer loop
  vertex -100 -100 1.62920678e-05
  vertex -50 -99.9999924 50.0000153
  vertex -100 -99.9999924 50.0000153
  endloop
 endfacet

 facet normal 0 -1 1.62920671e-07
  outer loop
  vertex -50 -100.000015 -99.9999847
  vertex 0 -100.000015 -99.9999847
  vertex 0 -100.000008 -49.9999847
  endloop
 endfacet

 facet normal 0 -1 1.62920671e-07
  outer loop
  vertex -50 -100.000015 -99.9999847
  vertex 0 -100.000008 -49.9999847
  vertex -50 -100.000008 -49.9999847
  endloop
 endfacet

 facet normal 0 -1 1.62920671e-07
  outer loop
  vertex -50 -100.000008 -49.9999847
  vertex 0 -100.000008 -49.9999847
  vertex 0 -100 1.62920678e-05
  endloop
 endfacet

 facet normal 0 -1 1.62920671e-07
  outer loop
  vertex -50 -100.000008 -49.9999847
  vertex 0 -100 1.62920678e-05
  vertex -50 -100 1.62920678e-05
  endloop
 endfacet

 facet normal 0 -1 1.62920671e-07
  outer loop
  vertex -50 -100 1.62920678e-05
  vertex 0 -100 1.62920678e-05
  vertex 0 -99.9999924 50.0000153
  endloop
 endfacet

 facet normal 0 -1 1.62920671e-07
  outer loop
  vertex -50 -100 1.62920678e-05
  vertex 0 -99.9999924 50.0000153
  vertex -50 -99.9999924 50.0000153
  endloop
 endfacet

 facet normal 0 -1 1.62920671e-07
  outer loop
  vertex 0 -100.000015 -99.9999847
  vertex 50 -100.000015 -99.9999847
  vertex 50 -100.000008 -49.9999847
  endloop
 endfacet

 facet normal 0 -1 1.62920671e-07
  outer loop
  vertex 0 -100.000015 -99.9999847
  vertex 50 -100.000008 -49.9999847
  vertex 0 -100.000008 -49.9999847
  endloop
 endfacet

 facet normal 0 -1 1.62920671e-07
  outer loop
  vertex 0 -100.000008 -49.9999847
  vertex 50 -100.000008 -49.9999847
  vertex 50 -100 1.62920678e-05
  endloop
 endfacet

 facet normal 0 -1 1.62920671e-07
  outer loop
  vertex 0 -100.000008 -49.9999847
  vertex 50 -100 1.62920678e-05
  vertex 0 -100 1.62920678e-05
  endloop
 endfacet

 facet normal 0 -1 1.62920671e-07
  outer loop
  vertex 0 -100 1.62920678e-05
  vertex 50 -100 1.62920678e-05
  vertex 50 -99.9999924 50.0000153
  endloop
 endfacet

 facet normal 0 -1 1.62920671e-07
  outer loop
  vertex 0 -100 1.62920678e-05
  vertex 50 -99.9999924 50.0000153
  vertex 0 -99.9999924 50.0000153
  endloop
 endfacet

 facet normal 0 -1 1.62920671e-07
  outer loop
  vertex 50 -100.000015 -99.9999847
  vertex 100 -100.000015 -99.9999847
  vertex 100 -100.000008 -49.9999847
  endloop
 endfacet

 facet normal 0 -1 1.62920671e-07
  outer loop
  vertex 50 -100.000015 -99.9999847
  vertex 100 -100.000008 -49.9999847
  vertex 50 -100.000008 -49.9999847
  endloop
 endfacet

 facet normal 0 -1 1.62920671e-07
  outer loop
  vertex 50 -100.000008 -49.9999847
  vertex 100 -100.000008 -49.9999847
  vertex 100 -100 1.62920678e-05
  endloop
 endfacet

 facet normal 0 -1 1.62920671e-07
  outer loop
  vertex 50 -100.000008 -49.9999847
  vertex 100 -100 1.62920678e-05
  vertex 50 -100 1.62920678e-05
  endloop
 endfacet

 facet normal 0 -1 1.62920671e-07
  outer loop
  vertex 50 -100 1.62920678e-05
  vertex 100 -100 1.62920678e-05
  vertex 100 -99.9999924 50.0000153
  endloop
 endfacet

 facet normal 0 -1 1.62920671e-07
  outer loop
  vertex 50 -100 1.62920678e-05
  vertex 100 -99.9999924 50.0000153
  vertex 50 -99.9999924 50.0000153
  endloop
 endfacet

 facet normal 0 1.62920671e-07 1
  outer loop
  vertex -50 -99.9999847 100.000015
  vertex -50 -49.9999847 100.000008
  vertex -100 -49.9999847 100.000008
  endloop
 endfacet

 facet normal 0 1.62920671e-07 1
  outer loop
  vertex -50 -99.9999847 100.000015
  vertex -100 -49.9999847 100.000008
  vertex -100 -99.9999847 100.000015
  endloop
 endfacet

 facet normal 0 1.62920671e-07 1
  outer loop
  vertex -50 -49.9999847 100.000008
  vertex -50 1.62920678e-05 100
  vertex -100 1.62920678e-05 100
  endloop
 endfacet

 facet normal 0 1.62920671e-07 1
  outer loop
  vertex -50 -49.9999847 100.000008
  vertex -100 1.62920678e-05 100
  vertex -100 -49.9999847 100.000008
  endloop
 endfacet

 facet normal 0 1.62920671e-07 1
  outer loop
  vertex -50 1.62920678e-05 100
  vertex -50 50.0000153 99.9999924
  vertex -100 50.0000153 99.9999924
  endloop
 endfacet

 facet normal 0 1.62920671e-07 1
  outer loop
  vertex -50 1.62920678e-05 100
  vertex -100 50.0000153 99.9999924
  vertex -100 1.62920678e-05 100
  endloop
 endfacet

 facet normal 0 1.62920671e-07 1
  outer loop
  vertex 100 -99.9999847 100.000015
  vertex 100 -49.9999847 100.000008
  vertex 50 -49.9999847 100.000008
  endloop
 endfacet

 facet normal 0 1.62920671e-07 1
  outer loop
  vertex 100 -99.9999847 100.000015
  vertex 50 -49.9999847 100.000008
  vertex 50 -99.9999847 100.000015
  endloop
 endfacet

 facet normal 0 1.62920671e-07 1
  outer loop
  vertex 50 -99.9999847 100.000015
  vertex 50 -49.9999847 100.000008
  vertex 0 -49.9999847 100.000008
  endloop
 endfacet

 facet normal 0 1.62920671e-07 1
  outer loop
  vertex 50 -99.9999847 100.000015
  vertex 0 -49.9999847 100.000008
  vertex 0 -99.9999847 100.000015
  endloop
 endfacet

 facet normal 0 1.62920671e-07 1
  outer loop
  vertex 0 -99.9999847 100.000015
  vertex 0 -49.9999847 100.000008
  vertex -50 -49.9999847 100.000008
  endloop
 endfacet

 facet normal 0 1.62920671e-07 1
  outer loop
  vertex 0 -99.9999847 100.000015
  vertex -50 -49.9999847 100.000008
  vertex -50 -99.9999847 100.000015
  endloop
 endfacet

 facet normal 0 1.62920671e-07 1
  outer loop
  vertex 100 -49.9999847 100.000008
  vertex 100 1.62920678e-05 100
  vertex 50 1.62920678e-05 100
  endloop
 endfacet

 facet normal 0 1.62920671e-07 1
  outer loop
  vertex 100 -49.9999847 100.000008
  vertex 50 1.62920678e-05 100
  vertex 50 -49.9999847 100.000008
  endloop
 endfacet

 facet normal 0 1.62920671e-07 1
  outer loop
  vertex 50 -49.9999847 100.000008
  vertex 50 1.62920678e-05 100
  vertex 0 1.62920678e-05 100
  endloop
 endfacet

 facet normal 0 1.62920671e-07 1
  outer loop
  vertex 50 -49.9999847 100.000008
  vertex 0 1.62920678e-05 100
  vertex 0 -49.9999847 100.000008
  endloop
 endfacet

 facet normal 0 1.62920671e-07 1
  outer loop
  vertex 0 -49.9999847 100.000008
  vertex 0 1.62920678e-05 100
  vertex -50 1.62920678e-05 100
  endloop
 endfacet

 facet normal 0 1.62920671e-07 1
  outer loop
  vertex 0 -49.9999847 100.000008
  vertex -50 1.62920678e-05 100
  vertex -50 -49.9999847 100.000008
  endloop
 endfacet

 facet normal 0 1.62920671e-07 1
  outer loop
  vertex 100 1.62920678e-05 100
  vertex 100 50.0000153 99.9999924
  vertex 50 50.0000153 99.9999924
  endloop
 endfacet

 facet normal 0 1.62920671e-07 1
  outer loop
  vertex 100 1.62920678e-05 100
  vertex 50 50.0000153 99.9999924
  vertex 50 1.62920678e-05 100
  endloop
 endfacet

 facet normal 0 1.62920671e-07 1
  outer loop
  vertex 50 1.62920678e-05 100
  vertex 50 50.0000153 99.9999924
  vertex 0 50.0000153 99.9999924
  endloop
 endfacet

 facet normal 0 1.62920671e-07 1
  outer loop
  vertex 50 1.62920678e-05 100
  vertex 0 50.0000153 99.9999924
  vertex 0 1.62920678e-05 100
  endloop
 endfacet

 facet normal 0 1.62920671e-07 1
  outer loop
  vertex 0 1.62920678e-05 100
  vertex 0 50.0000153 99.9999924
  vertex -50 50.0000153 99.9999924
  endloop
 endfacet

 facet normal 0 1.62920671e-07 1
  outer loop
  vertex 0 1.62920678e-05 100
  vertex -50 50.0000153 99.9999924
  vertex -50 1.62920678e-05 100
  endloop
 endfacet

 facet normal 0 1.62920671e-07 1
  outer loop
  vertex 100 50.0000153 99.9999924
  vertex 100 100.000015 99.9999847
  vertex 50 100.000015 99.9999847
  endloop
 endfacet

 facet normal 0 1.62920671e-07 1
  outer loop
  vertex 100 50.0000153 99.9999924
  vertex 50 100.000015 99.9999847
  vertex 50 50.0000153 99.9999924
  endloop
 endfacet

 facet normal 0 1.62920671e-07 1
  outer loop
  vertex 50 50.0000153 99.9999924
  vertex 50 100.000015 99.9999847
  vertex 0 100.000015 99.9999847
  endloop
 endfacet

 facet normal 0 1.62920671e-07 1
  outer loop
  vertex 50 50.0000153 99.9999924
  vertex 0 100.000015 99.9999847
  vertex 0 50.0000153 99.9999924
  endloop
 endfacet

 facet normal 0 1.62920671e-07 1
  outer loop
  vertex 0 50.0000153 99.9999924
  vertex 0 100.000015 99.9999847
  vertex -50 100.000015 99.9999847
  endloop
 endfacet

 facet normal 0 1.62920671e-07 1
  outer loop
  vertex 0 50.0000153 99.9999924
  vertex -50 100.000015 99.9999847
  vertex -50 50.0000153 99.9999924
  endloop
 endfacet

 facet normal 1 0 0
  outer loop
  vertex 100 -99.9999924 50.0000153
  vertex 100 -49.9999924 50.0000076
  vertex 100 -49.9999847 100.000008
  endloop
 endfacet

 facet normal 1 0 0
  outer loop
  vertex 100 -99.9999924 50.0000153
  vertex 100 -49.9999847 100.000008
  vertex 100 -99.9999847 100.000015
  endloop
 endfacet

 facet normal 1 0 0
  outer loop
  vertex 100 -49.9999924 50.0000076
  vertex 100 8.14603391e-06 50
  vertex 100 1.62920678e-05 100
  endloop
 endfacet

 facet normal 1 0 0
  outer loop
  vertex 100 -49.9999924 50.0000076
  vertex 100 1.62920678e-05 100
  vertex 100 -49.9999847 100.000008
  endloop
 endfacet

 facet normal 1 0 0
  outer loop
  vertex 100 8.14603391e-06 50
  vertex 100 50.0000076 49.9999924
  vertex 100 50.0000153 99.9999924
  endloop
 endfacet

 facet normal 1 0 0
  outer loop
  vertex 100 8.14603391e-06 50
  vertex 100 50.0000153 99.9999924
  vertex 100 1.62920678e-05 100
  endloop
 endfacet

 facet normal 1 0 0
  outer loop
  vertex 100 -100.000015 -99.9999847
  vertex 100 -50.0000153 -99.9999924
  vertex 100 -50.0000076 -49.9999924
  endloop
 endfacet

 facet normal 1 0 0
  outer loop
  vertex 100 -100.000015 -99.9999847
  vertex 100 -50.0000076 -49.9999924
  vertex 100 -100.000008 -49.9999847
  endloop
 endfacet

 facet normal 1 0 0
  outer loop
  vertex 100 -100.000008 -49.9999847
  vertex 100 -50.0000076 -49.9999924
  vertex 100 -50 8.14603391e-06
  endloop
 endfacet

 facet normal 1 0 0
  outer loop
  vertex 100 -100.000008 -49.9999847
  vertex 100 -50 8.14603391e-06
  vertex 100 -100 1.62920678e-05
  endloop
 endfacet

 facet normal 1 0 0
  outer loop
  vertex 100 -100 1.62920678e-05
  vertex 100 -50 8.14603391e-06
  vertex 100 -49.9999924 50.0000076
  endloop
 endfacet

 facet normal 1 0 0
  outer loop
  vertex 100 -100 1.62920678e-05
  vertex 100 -49.9999924 50.0000076
  vertex 100 -99.9999924 50.0000153
  endloop
 endfacet

 facet normal 1 0 0
  outer loop
  vertex 100 -50.0000153 -99.9999924
  vertex 100 -1.62920678e-05 -100
  vertex 100 -8.14603391e-06 -50
  endloop
 endfacet

 facet normal 1 0 0
  outer loop
  vertex 100 -50.0000153 -99.9999924
  vertex 100 -8.14603391e-06 -50
  vertex 100 -50.0000076 -49.9999924
  endloop
 endfacet

 facet normal 1 0 0
  outer loop
  vertex 100 -50.0000076 -49.9999924
  vertex 100 -8.14603391e-06 -50
  vertex 100 0 0
  endloop
 endfacet

 facet normal 1 0 0
  outer loop
  vertex 100 -50.0000076 -49.9999924
  vertex 100 0 0
  vertex 100 -50 8.14603391e-06
  endloop
 endfacet

 facet normal 1 0 0
  outer loop
  vertex 100 -50 8.14603391e-06
  vertex 100 0 0
  vertex 100 8.14603391e-06 50
  endloop
 endfacet

 facet normal 1 0 0
  outer loop
  vertex 100 -50 8.14603391e-06
  vertex 100 8.14603391e-06 50
  vertex 100 -49.9999924 50.0000076
  endloop
 endfacet

 facet normal 1 0 0
  outer loop
  vertex 100 -1.62920678e-05 -100
  vertex 100 49.9999847 -100.000008
  vertex 100 49.9999924 -50.0000076
  endloop
 endfacet

 facet normal 1 0 0
  outer loop
  vertex 100 -1.62920678e-05 -100
  vertex 100 49.9999924 -50.0000076
  vertex 100 -8.14603391e-06 -50
  endloop
 endfacet

 facet normal 1 0 0
  outer loop
  vertex 100 -8.14603391e-06 -50
  vertex 100 49.9999924 -50.0000076
  vertex 100 50 -8.14603391e-06
  endloop
 endfacet

 facet normal 1 0 0
  outer loop
  vertex 100 -8.14603391e-06 -50
  vertex 100 50 -8.14603391e-06
  vertex 100 0 0
  endloop
 endfacet

 facet normal 1 0 0
  outer loop
  vertex 100 0 0
  vertex 100 50 -8.14603391e-06
  vertex 100 50.0000076 49.9999924
  endloop
 endfacet

 facet normal 1 0 0
  outer loop
  vertex 100 0 0
  vertex 100 50.0000076 49.9999924
  vertex 100 8.14603391e-06 50
  endloop
 endfacet

 facet normal 1 0 0
  outer loop
  vertex 100 49.9999847 -100.000008
  vertex 100 99.9999847 -100.000015
  vertex 100 99.9999924 -50.0000153
  endloop
 endfacet

 facet normal 1 0 0
  outer loop
  vertex 100 49.9999847 -100.000008
  vertex 100 99.9999924 -50.0000153
  vertex 100 49.9999924 -50.0000076
  endloop
 endfacet

 facet normal 1 0 0
  outer loop
  vertex 100 49.9999924 -50.0000076
  vertex 100 99.9999924 -50.0000153
  vertex 100 100 -1.62920678e-05
  endloop
 endfacet

 facet normal 1 0 0
  outer loop
  vertex 100 49.9999924 -50.0000076
  vertex 100 100 -1.62920678e-05
  vertex 100 50 -8.14603391e-06
  endloop
 endfacet

 facet normal 1 0 0
  outer loop
  vertex 100 50 -8.14603391e-06
  vertex 100 100 -1.62920678e-05
  vertex 100 100.000008 49.9999847
  endloop
 endfacet

 facet normal 1 0 0
  outer loop
  vertex 100 50 -8.14603391e-06
  vertex 100 100.000008 49.9999847
  vertex 100 50.0000076 49.9999924
  endloop
 endfacet

 facet normal 0 -1.62920671e-07 -1
  outer loop
  vertex 50 -100.000015 -99.9999847
  vertex 50 -50.0000153 -99.9999924
  vertex 100 -50.0000153 -99.9999924
  endloop
 endfacet

 facet normal 0 -1.62920671e-07 -1
  outer loop
  vertex 50 -100.000015 -99.9999847
  vertex 100 -50.0000153 -99.9999924
  vertex 100 -100.000015 -99.9999847
  endloop
 endfacet

 facet normal 0 -1.62920671e-07 -1
  outer loop
  vertex 50 -50.0000153 -99.9999924
  vertex 50 -1.62920678e-05 -100
  vertex 100 -1.62920678e-05 -100
  endloop
 endfacet

 facet normal 0 -1.62920671e-07 -1
  outer loop
  vertex 50 -50.0000153 -99.9999924
  vertex 100 -1.62920678e-05 -100
  vertex 100 -50.0000153 -99.9999924
  endloop
 endfacet

 facet normal 0 -1.62920671e-07 -1
  outer loop
  vertex 50 -1.62920678e-05 -100
  vertex 50 49.9999847 -100.000008
  vertex 100 49.9999847 -100.000008
  endloop
 endfacet

 facet normal 0 -1.62920671e-07 -1
  outer loop
  vertex 50 -1.62920678e-05 -100
  vertex 100 49.9999847 -100.000008
  vertex 100 -1.62920678e-05 -100
  endloop
 endfacet

 facet normal 0 -1.62920671e-07 -1
  outer loop
  vertex -100 -100.000015 -99.9999847
  vertex -100 -50.0000153 -99.9999924
  vertex -50 -50.0000153 -99.9999924
  endloop
 endfacet

 facet normal 0 -1.62920671e-07 -1
  outer loop
  vertex -100 -100.000015 -99.9999847
  vertex -50 -50.0000153 -99.9999924
  vertex -50 -100.000015 -99.9999847
  endloop
 endfacet

 facet normal 0 -1.62920671e-07 -1
  outer loop
  vertex -50 -100.000015 -99.9999847
  vertex -50 -50.0000153 -99.9999924
  vertex 0 -50.0000153 -99.9999924
  endloop
 endfacet

 facet normal 0 -1.62920671e-07 -1
  outer loop
  vertex -50 -100.000015 -99.9999847
  vertex 0 -50.0000153 -99.9999924
  vertex 0 -100.000015 -99.9999847
  endloop
 endfacet

 facet normal 0 -1.62920671e-07 -1
  outer loop
  vertex 0 -100.000015 -99.9999847
  vertex 0 -50.0000153 -99.9999924
  vertex 50 -50.0000153 -99.9999924
  endloop
 endfacet

 facet normal 0 -1.62920671e-07 -1
  outer loop
  vertex 0 -100.000015 -99.9999847
  vertex 50 -50.0000153 -99.9999924
  vertex 50 -100.000015 -99.9999847
  endloop
 endfacet

 facet normal 0 -1.62920671e-07 -1
  outer loop
  vertex -100 -50.0000153 -99.9999924
  vertex -100 -1.62920678e-05 -100
  vertex -50 -1.62920678e-05 -100
  endloop
 endfacet

 facet normal 0 -1.62920671e-07 -1
  outer loop
  vertex -100 -50.0000153 -99.9999924
  vertex -50 -1.62920678e-05 -100
  vertex -50 -50.0000153 -99.9999924
  endloop
 endfacet

 facet normal 0 -1.62920671e-07 -1
  outer loop
  vertex -50 -50.0000153 -99.9999924
  vertex -50 -1.62920678e-05 -100
  vertex 0 -1.62920678e-05 -100
  endloop
 endfacet

 facet normal 0 -1.62920671e-07 -1
  outer loop
  vertex -50 -50.0000153 -99.9999924
  vertex 0 -1.62920678e-05 -100
  vertex 0 -50.0000153 -99.9999924
  endloop
 endfacet

 facet normal 0 -1.62920671e-07 -1
  outer loop
  vertex 0 -50.0000153 -99.9999924
  vertex 0 -1.62920678e-05 -100
  vertex 50 -1.62920678e-05 -100
  endloop
 endfacet

 facet normal 0 -1.62920671e-07 -1
  outer loop
  vertex 0 -50.0000153 -99.9999924
  vertex 50 -1.62920678e-05 -100
  vertex 50 -50.0000153 -99.9999924
  endloop
 endfacet

 facet normal 0 -1.62920671e-07 -1
  outer loop
  vertex -100 -1.62920678e-05 -100
  vertex -100 49.9999847 -100.000008
  vertex -50 49.9999847 -100.000008
  endloop
 endfacet

 facet normal 0 -1.62920671e-07 -1
  outer loop
  vertex -100 -1.62920678e-05 -100
  vertex -50 49.9999847 -100.000008
  vertex -50 -1.62920678e-05 -100
  endloop
 endfacet

 facet normal 0 -1.62920671e-07 -1
  outer loop
  vertex -50 -1.62920678e-05 -100
  vertex -50 49.9999847 -100.000008
  vertex 0 49.9999847 -100.000008
  endloop
 endfacet

 facet normal 0 -1.62920671e-07 -1
  outer loop
  vertex -50 -1.62920678e-05 -100
  vertex 0 49.9999847 -100.000008
  vertex 0 -1.62920678e-05 -100
  endloop
 endfacet

 facet normal 0 -1.62920671e-07 -1
  outer loop
  vertex 0 -1.62920678e-05 -100
  vertex 0 49.9999847 -100.000008
  vertex 50 49.9999847 -100.000008
  endloop
 endfacet

 facet normal 0 -1.62920671e-07 -1
  outer loop
  vertex 0 -1.62920678e-05 -100
  vertex 50 49.9999847 -100.000008
  vertex 50 -1.62920678e-05 -100
  endloop
 endfacet

 facet normal 0 -1.62920671e-07 -1
  outer loop
  vertex -100 49.9999847 -100.000008
  vertex -100 99.9999847 -100.000015
  vertex -50 99.9999847 -100.000015
  endloop
 endfacet

 facet normal 0 -1.62920671e-07 -1
  outer loop
  vertex -100 49.9999847 -100.000008
  vertex -50 99.9999847 -100.000015
  vertex -50 49.9999847 -100.000008
  endloop
 endfacet

 facet normal 0 -1.62920671e-07 -1
  outer loop
  vertex -50 49.9999847 -100.000008
  vertex -50 99.9999847 -100.000015
  vertex 0 99.9999847 -100.000015
  endloop
 endfacet

 facet normal 0 -1.62920671e-07 -1
  outer loop
  vertex -50 49.9999847 -100.000008
  vertex 0 99.9999847 -100.000015
  vertex 0 49.9999847 -100.000008
  endloop
 endfacet

 facet normal 0 -1.62920671e-07 -1
  outer loop
  vertex 0 49.9999847 -100.000008
  vertex 0 99.9999847 -100.000015
  vertex 50 99.9999847 -100.000015
  endloop
 endfacet

 facet normal 0 -1.62920671e-07 -1
  outer loop
  vertex 0 49.9999847 -100.000008
  vertex 50 99.9999847 -100.000015
  vertex 50 49.9999847 -100.000008
  endloop
 endfacet

 facet normal -1 0 0
  outer loop
  vertex -100 -100.000008 -49.9999847
  vertex -100 -50.0000076 -49.9999924
  vertex -100 -50.0000153 -99.9999924
  endloop
 endfacet

 facet normal -1 0 0
  outer loop
  vertex -100 -100.000008 -49.9999847
  vertex -100 -50.0000153 -99.9999924
  vertex -100 -100.000015 -99.9999847
  endloop
 endfacet

 facet normal -1 0 0
  outer loop
  vertex -100 -50.0000076 -49.9999924
  vertex -100 -8.14603391e-06 -50
  vertex -100 -1.62920678e-05 -100
  endloop
 endfacet

 facet normal -1 0 0
  outer loop
  vertex -100 -50.0000076 -49.9999924
  vertex -100 -1.62920678e-05 -100
  vertex -100 -50.0000153 -99.9999924
  endloop
 endfacet

 facet normal -1 0 0
  outer loop
  vertex -100 -8.14603391e-06 -50
  vertex -100 49.9999924 -50.0000076
  vertex -100 49.9999847 -100.000008
  endloop
 endfacet

 facet normal -1 0 0
  outer loop
  vertex -100 -8.14603391e-06 -50
  vertex -100 49.9999847 -100.000008
  vertex -100 -1.62920678e-05 -100
  endloop
 endfacet

 facet normal -1 0 0
  outer loop
  vertex -100 -99.9999847 100.000015
  vertex -100 -49.9999847 100.000008
  vertex -100 -49.9999924 50.0000076
  endloop
 endfacet

 facet normal -1 0 0
  outer loop
  vertex -100 -99.9999847 100.000015
  vertex -100 -49.9999924 50.0000076
  vertex -100 -99.9999924 50.0000153
  endloop
 endfacet

 facet normal -1 0 0
  outer loop
  vertex -100 -99.9999924 50.0000153
  vertex -100 -49.9999924 50.0000076
  vertex -100 -50 8.14603391e-06
  endloop
 endfacet

 facet normal -1 0 0
  outer loop
  vertex -100 -99.9999924 50.0000153
  vertex -100 -50 8.14603391e-06
  vertex -100 -100 1.62920678e-05
  endloop
 endfacet

 facet normal -1 0 0
  outer loop
  vertex -100 -100 1.62920678e-05
  vertex -100 -50 8.14603391e-06
  vertex -100 -50.0000076 -49.9999924
  endloop
 endfacet

 facet normal -1 0 0
  outer loop
  vertex -100 -100 1.62920678e-05
  vertex -100 -50.0000076 -49.9999924
  vertex -100 -100.000008 -49.9999847
  endloop
 endfacet

 facet normal -1 0 0
  outer loop
  vertex -100 -49.9999847 100.000008
  vertex -100 1.62920678e-05 100
  vertex -100 8.14603391e-06 50
  endloop
 endfacet

 facet normal -1 0 0
  outer loop
  vertex -100 -49.9999847 100.000008
  vertex -100 8.14603391e-06 50
  vertex -100 -49.9999924 50.0000076
  endloop
 endfacet

 facet normal -1 0 0
  outer loop
  vertex -100 -49.9999924 50.0000076
  vertex -100 8.14603391e-06 50
  vertex -100 0 0
  endloop
 endfacet

 facet normal -1 0 0
  outer loop
  vertex -100 -49.9999924 50.0000076
  vertex -100 0 0
  vertex -100 -50 8.14603391e-06
  endloop
 endfacet

 facet normal -1 0 0
  outer loop
  vertex -100 -50 8.14603391e-06
  vertex -100 0 0
  vertex -100 -8.14603391e-06 -50
  endloop
 endfacet

 facet normal -1 0 0
  outer loop
  vertex -100 -50 8.14603391e-06
  vertex -100 -8.14603391e-06 -50
  vertex -100 -50.0000076 -49.9999924
  endloop
 endfacet

 facet normal -1 0 0
  outer loop
  vertex -100 1.62920678e-05 100
  vertex -100 50.0000153 99.9999924
  vertex -100 50.0000076 49.9999924
  endloop
 endfacet

 facet normal -1 0 0
  outer loop
  vertex -100 1.62920678e-05 100
  vertex -100 50.0000076 49.9999924
  vertex -100 8.14603391e-06 50
  endloop
 endfacet

 facet normal -1 0 0
  outer loop
  vertex -100 8.14603391e-06 50
  vertex -100 50.0000076 49.9999924
  vertex -100 50 -8.14603391e-06
  endloop
 endfacet

 facet normal -1 0 0
  outer loop
  vertex -100 8.14603391e-06 50
  vertex -100 50 -8.14603391e-06
  vertex -100 0 0
  endloop
 endfacet

 facet normal -1 0 0
  outer loop
  vertex -100 0 0
  vertex -100 50 -8.14603391e-06
  vertex -100 49.9999924 -50.0000076
  endloop
 endfacet

 facet normal -1 0 0
  outer loop
  vertex -100 0 0
  vertex -100 49.9999924 -50.0000076
  vertex -100 -8.14603391e-06 -50
  endloop
 endfacet

 facet normal -1 0 0
  outer loop
  vertex -100 50.0000153 99.9999924
  vertex -100 100.000015 99.9999847
  vertex -100 100.000008 49.9999847
  endloop
 endfacet

 facet normal -1 0 0
  outer loop
  vertex -100 50.0000153 99.9999924
  vertex -100 100.000008 49.9999847
  vertex -100 50.0000076 49.9999924
  endloop
 endfacet

 facet normal -1 0 0
  outer loop
  vertex -100 50.0000076 49.9999924
  vertex -100 100.000008 49.9999847
  vertex -100 100 -1.62920678e-05
  endloop
 endfacet

 facet normal -1 0 0
  outer loop
  vertex -100 50.0000076 49.9999924
  vertex -100 100 -1.62920678e-05
  vertex -100 50 -8.14603391e-06
  endloop
 endfacet

 facet normal -1 0 0
  outer loop
  vertex -100 50 -8.14603391e-06
  vertex -100 100 -1.62920678e-05
  vertex -100 99.9999924 -50.0000153
  endloop
 endfacet

 facet normal -1 0 0
  outer loop
  vertex -100 50 -8.14603391e-06
  vertex -100 99.9999924 -50.0000153
  vertex -100 49.9999924 -50.0000076
  endloop
 endfacet

endsolid AssimpScene
