<svg xmlns="http://www.w3.org/2000/svg" viewBox="0 0 139.05 149.59"><defs><style>.cls-1{fill:#fff;}</style></defs><g id="Layer_2" data-name="Layer 2"><g id="Layer_2-2" data-name="Layer 2"><path class="cls-1" d="M0,115.72V47.79a6.92,6.92,0,0,1,10.08-6.15L62.56,68.58a6.92,6.92,0,0,1,3.76,6.16v67.92a6.92,6.92,0,0,1-10.08,6.16L3.76,121.88A6.92,6.92,0,0,1,0,115.72Z"/><path class="cls-1" d="M76.49,68.58,129,41.64a6.92,6.92,0,0,1,10.08,6.15v67.93a6.92,6.92,0,0,1-3.76,6.16L82.81,148.82a6.92,6.92,0,0,1-10.08-6.16V74.74A6.92,6.92,0,0,1,76.49,68.58Z"/><path class="cls-1" d="M16.35,25.22,66.48.7a7,7,0,0,1,6.09,0L122.7,25.22a6.92,6.92,0,0,1,.12,12.38L72.69,63.34a6.93,6.93,0,0,1-6.33,0L16.23,37.6A6.92,6.92,0,0,1,16.35,25.22Z"/></g></g></svg>