<svg xmlns="http://www.w3.org/2000/svg" viewBox="0 0 512 512"><defs><style>.cls-1{fill:#fbd345;}.cls-2{fill:#231f20;}</style></defs><g id="Layer_2" data-name="Layer 2"><g id="Layer_1-2" data-name="Layer 1"><circle class="cls-1" cx="256" cy="256" r="256"/><path class="cls-2" d="M305.5,198.85l-55.87-70.52c-3.55-4.47-9.55-2.84-11.33,3.09l-15.59,51.75c-1.16,3.86-4.28,6.16-7.5,5.54C134.15,173,71.71,178.05,67.38,203.3c-4,23.68,44.24,58.14,115.39,85.76a46.74,46.74,0,0,1,18.77,13.86l67.59,80.91c3.51,4.2,9.25,2.66,11.11-3l17.28-52.15c1.22-3.68,4.23-5.84,7.34-5.28,77.11,13.83,135.57,8.3,139.76-16.1,3.83-22.39-39.12-54.41-103.94-81.18C327.43,220.67,315.38,211.32,305.5,198.85Zm53.44,84.84c-2.83,16.52-51.21,17.2-108.06,1.52s-100.66-41.77-97.82-58.29,51.21-17.19,108.06-1.52S361.78,267.18,358.94,283.69Z"/></g></g></svg>