<svg xmlns="http://www.w3.org/2000/svg" viewBox="0 0 139.11 168.74"><defs><style>.cls-1{fill:#fff;}</style></defs><g id="Layer_2" data-name="Layer 2"><g id="Layer_2-2" data-name="Layer 2"><path class="cls-1" d="M127.48.17a9.84,9.84,0,0,1,11.63,9.68V127.47h0c0,.3,0,.6,0,.9,0,13.54-12.21,24.52-27.28,24.52s-27.28-11-27.28-24.52,12.21-24.53,27.28-24.53q.61,0,1.23,0a9.77,9.77,0,0,0,10.28-9.68V49.92a9.84,9.84,0,0,0-11.63-9.68L62.63,49.3A9.84,9.84,0,0,0,54.57,59v85.23c0,13.55-12.22,24.53-27.29,24.53S0,157.76,0,144.21s12.21-24.52,27.28-24.52q.62,0,1.23,0A9.77,9.77,0,0,0,38.79,110V24.73a9.84,9.84,0,0,1,8.05-9.68l7.73-1.43L123.34.93Z"/></g></g></svg>