<svg xmlns="http://www.w3.org/2000/svg" viewBox="0 0 298.82 298.82"><defs><style>.cls-1{fill:#231f20;}</style></defs><g id="Layer_2" data-name="Layer 2"><g id="Layer_2-2" data-name="Layer 2"><path class="cls-1" d="M296.31,275.29l-21,21a8.55,8.55,0,0,1-12.11,0L155.46,188.6a8.57,8.57,0,0,0-12.11,0L35.64,296.31a8.55,8.55,0,0,1-12.11,0l-21-21a8.55,8.55,0,0,1,0-12.11L110.22,155.47a8.57,8.57,0,0,0,0-12.11L2.51,35.65a8.55,8.55,0,0,1,0-12.11l21-21a8.55,8.55,0,0,1,12.11,0l107.71,107.7a8.55,8.55,0,0,0,12.11,0L263.18,2.51a8.55,8.55,0,0,1,12.11,0l21,21a8.55,8.55,0,0,1,0,12.11L188.6,143.36a8.55,8.55,0,0,0,0,12.11L296.31,263.18A8.57,8.57,0,0,1,296.31,275.29Z"/></g></g></svg>