<svg xmlns="http://www.w3.org/2000/svg" viewBox="0 0 440.64 461.5"><g id="Layer_2" data-name="Layer 2"><g id="Layer_2-2" data-name="Layer 2"><path fill="#ffffff" d="M434.75,291.84,383.84,244.1a18.65,18.65,0,0,1,0-27.17L434.57,169a18.64,18.64,0,0,0,3.34-22.91L402,84.09a18.67,18.67,0,0,0-21.54-8.5L313.63,95.82a18.65,18.65,0,0,1-23.55-13.55L274,14.35A18.64,18.64,0,0,0,255.83,0L184.14.1A18.66,18.66,0,0,0,166,14.51l-15.88,68a18.66,18.66,0,0,1-23.51,13.62l-66.87-20a18.65,18.65,0,0,0-21.51,8.57L2.49,146.77a18.64,18.64,0,0,0,3.41,22.9L56.81,217.4a18.65,18.65,0,0,1,0,27.17L6.08,292.46a18.64,18.64,0,0,0-3.34,22.91l35.93,62a18.67,18.67,0,0,0,21.54,8.5L127,365.69a18.64,18.64,0,0,1,23.54,13.55l16.08,67.91a18.64,18.64,0,0,0,18.17,14.35l71.7-.1A18.66,18.66,0,0,0,274.64,447l15.88-68A18.64,18.64,0,0,1,314,365.41l66.87,20a18.66,18.66,0,0,0,21.51-8.56l35.75-62.14A18.66,18.66,0,0,0,434.75,291.84ZM220.32,327.05a96.3,96.3,0,1,1,96.3-96.3A96.3,96.3,0,0,1,220.32,327.05Z"/></g></g></svg>