<svg xmlns="http://www.w3.org/2000/svg" viewBox="0 0 207.29 142.85"><defs><style>.cls-1{fill:#fff;}</style></defs><g id="Layer_2" data-name="Layer 2"><g id="Layer_2-2" data-name="Layer 2"><path class="cls-1" d="M143.91,34.05a45.57,45.57,0,0,0-13.26,8.38,4.58,4.58,0,0,1-5,.84L99,31.4a4.57,4.57,0,0,1-2.59-3.13C83.59-27.14,3.26,8.17,35,54.94a4.56,4.56,0,0,1,.38,4.5L20.48,91.56A4.57,4.57,0,0,1,17.66,94C3.84,98.22-3.83,114.06,1.93,127.61c8.05,21.64,41.46,19.64,47.29-2.24l74-24.08c29.24,45.32,101.35,7.76,80.24-42.51A45.62,45.62,0,0,0,143.91,34.05ZM59,68.71C70.36,70,82.91,64.58,89.86,55.52a4.59,4.59,0,0,1,5.5-1.44L114,62.34a4.53,4.53,0,0,1,2.63,5,45.67,45.67,0,0,0-.87,9.65,4.52,4.52,0,0,1-3.09,4.42L48.48,102.28A4.55,4.55,0,0,1,43.72,101l0,0a4.56,4.56,0,0,1-.79-5L54.36,71.31A4.55,4.55,0,0,1,59,68.71Z"/></g></g></svg>