<svg xmlns="http://www.w3.org/2000/svg" viewBox="0 0 103.11 129.74"><defs><style>.cls-1{fill:#fff;}</style></defs><g id="Layer_2" data-name="Layer 2"><g id="Layer_2-2" data-name="Layer 2"><path class="cls-1" d="M95.32,27.76H86.68A7.68,7.68,0,0,1,79,20.11V7.79A7.79,7.79,0,0,0,71.24,0H7.65A7.67,7.67,0,0,0,0,7.65V122.09a7.68,7.68,0,0,0,7.65,7.65H95.46a7.68,7.68,0,0,0,7.65-7.65V35.55A7.78,7.78,0,0,0,95.32,27.76ZM15.81,31.18a3.17,3.17,0,0,1,2.25-.94H53.9a3.2,3.2,0,0,1,3.18,3.19,3.19,3.19,0,0,1-3.18,3.19H18.06a3.19,3.19,0,0,1-3.18-3.19A3.16,3.16,0,0,1,15.81,31.18ZM89.09,102.6A3.14,3.14,0,0,1,86,105.73H18a3.13,3.13,0,0,1-3.13-3.13v-.1A3.13,3.13,0,0,1,18,99.37H86a3.13,3.13,0,0,1,3.13,3.13Zm0-17.28A3.13,3.13,0,0,1,86,88.45H18a3.13,3.13,0,0,1-3.13-3.13v-.1A3.13,3.13,0,0,1,18,82.09H86a3.14,3.14,0,0,1,3.13,3.13Zm0-17.28A3.14,3.14,0,0,1,86,71.17H18A3.13,3.13,0,0,1,14.88,68v-.1A3.14,3.14,0,0,1,18,64.8H86a3.15,3.15,0,0,1,3.13,3.14ZM88.15,53a3.17,3.17,0,0,1-2.25.94H18.06a3.19,3.19,0,0,1-3.18-3.19,3.19,3.19,0,0,1,3.18-3.19H85.9a3.2,3.2,0,0,1,3.19,3.19A3.17,3.17,0,0,1,88.15,53Z"/></g></g></svg>