<svg xmlns="http://www.w3.org/2000/svg" viewBox="0 0 249.33 357.8"><defs><style>.cls-1{fill:#fff;}</style></defs><g id="Layer_2" data-name="Layer 2"><g id="Layer_2-2" data-name="Layer 2"><path class="cls-1" d="M208.83,287.21a265.3,265.3,0,0,0-39.22-7l-9.77,16.93a269.85,269.85,0,0,1,42.41,6.8c22.94,5.86,28.86,12.37,29.26,13.9-.4,1.54-6.32,8-29.26,13.92-20.91,5.34-48.46,8.28-77.58,8.28s-56.69-2.94-77.6-8.28c-22.94-5.87-28.86-12.38-29.26-13.92.4-1.53,6.32-8,29.26-13.9a268.64,268.64,0,0,1,42.42-6.8l-9.77-16.93a265.45,265.45,0,0,0-39.23,7C13.62,294.42,0,304.71,0,317.79s13.62,23.37,40.49,30.59c22.6,6.08,52.49,9.42,84.18,9.42s61.56-3.34,84.16-9.42c26.87-7.22,40.5-17.51,40.5-30.59S235.7,294.42,208.83,287.21Z"/><path class="cls-1" d="M208.19,183.67l-75.5,130.77a9.27,9.27,0,0,1-16,0L41.14,183.67a9.27,9.27,0,0,1,8-13.9h23a9.26,9.26,0,0,0,9.27-9.26V9.27A9.26,9.26,0,0,1,90.75,0h67.83a9.26,9.26,0,0,1,9.26,9.27V160.51a9.26,9.26,0,0,0,9.27,9.26h23A9.27,9.27,0,0,1,208.19,183.67Z"/></g></g></svg>