<svg xmlns="http://www.w3.org/2000/svg" viewBox="0 0 960.35 662.2"><g id="Layer_2" data-name="Layer 2"><g id="Layer_1-2" data-name="Layer 1"><path fill="#fbd345" d="M606,185.79,464,6.49c-9-11.37-24.27-7.21-28.81,7.85L395.54,145.93c-3,9.8-10.9,15.65-19.08,14.07C170.35,120.09,11.61,132.91.6,197.1-9.72,257.33,113.08,344.92,294,415.17c17.84,6.92,34.17,19,47.73,35.23L513.56,656.12c8.93,10.68,23.51,6.77,28.26-7.57l43.92-132.61c3.1-9.34,10.77-14.84,18.68-13.43,196,35.18,344.69,21.12,355.33-40.92,9.76-56.94-99.45-138.34-264.25-206.4C661.8,241.27,631.15,217.49,606,185.79ZM741.92,401.51c-7.2,42-130.22,43.72-274.77,3.85S211.23,299.16,218.43,257.17s130.23-43.72,274.78-3.87S749.12,359.52,741.92,401.51Z"/></g></g></svg>