<svg xmlns="http://www.w3.org/2000/svg" viewBox="0 0 569.06 727.55"><defs><style>.cls-1{fill:#231f20;}</style></defs><g id="Layer_2" data-name="Layer 2"><g id="Layer_1-2" data-name="Layer 1"><path class="cls-1" d="M517.39,177.33H423.56A16.61,16.61,0,0,1,407,160.72V66.88c0-14.8,17.89-22.21,28.36-11.74L529.14,149C539.6,159.44,532.19,177.33,517.39,177.33Z"/><path class="cls-1" d="M552.45,206.45H391.56A16.61,16.61,0,0,1,375,189.84V16.61A16.61,16.61,0,0,0,358.34,0H103.45A16.61,16.61,0,0,0,86.84,16.61v609a16.61,16.61,0,0,0,16.61,16.61h449a16.61,16.61,0,0,0,16.61-16.61V223.06A16.61,16.61,0,0,0,552.45,206.45Zm-46,294.5a15.23,15.23,0,0,1-10.79,4.49H161.23a15.28,15.28,0,0,1,0-30.56H495.67A15.26,15.26,0,0,1,506.46,501Zm0-83.72a15.23,15.23,0,0,1-10.79,4.49H161.23a15.28,15.28,0,0,1,0-30.56H495.67a15.26,15.26,0,0,1,10.79,26.07Zm0-83.72A15.23,15.23,0,0,1,495.67,338H161.23a15.28,15.28,0,0,1,0-30.56H495.67a15.26,15.26,0,0,1,10.79,26.07Z"/><path class="cls-1" d="M74.12,675.55H465.61a16.61,16.61,0,0,1,16.61,16.61v18.78a16.61,16.61,0,0,1-16.61,16.61h-449A16.61,16.61,0,0,1,0,710.94v-609A16.61,16.61,0,0,1,16.61,85.33H40.9a16.61,16.61,0,0,1,16.61,16.61v557A16.61,16.61,0,0,0,74.12,675.55Z"/></g></g></svg>