<svg xmlns="http://www.w3.org/2000/svg" viewBox="0 0 731.67 563.38"><g id="Layer_2" data-name="Layer 2"><g id="Layer_2-2" data-name="Layer 2"><path fill="#ffffff" d="M610.76,76.63V93.06a21.51,21.51,0,0,1-21.52,21.51H147.38A21.53,21.53,0,0,0,127.89,127L41,312.63c-9.76,20.85-41,13.89-41-9.12v-282A21.51,21.51,0,0,1,21.52,0H223.87a21.51,21.51,0,0,1,21.52,21.52V33.6a21.52,21.52,0,0,0,21.52,21.51H589.24A21.52,21.52,0,0,1,610.76,76.63Z"/><path fill="#ffffff" d="M710.13,174a21.52,21.52,0,0,1,19.49,30.64l-118.86,254L567.56,551a21.51,21.51,0,0,1-19.49,12.4H33.83a21.52,21.52,0,0,1-19.49-30.64l13.48-28.81L63,428.66,176.41,186.42A21.51,21.51,0,0,1,195.9,174Z"/></g></g></svg>