<svg xmlns="http://www.w3.org/2000/svg" viewBox="0 0 1690.34 417.66"><g id="Layer_2" data-name="Layer 2"><g id="Layer_1-2" data-name="Layer 1"><path fill="#f8f8f8" d="M767.37,333.58q-21.14,0-35.4-7.84A53.84,53.84,0,0,1,710.39,305a56.88,56.88,0,0,1-7.31-28.44q0-14.44,5.11-25.37a49.49,49.49,0,0,1,15.15-18.58A82.11,82.11,0,0,1,748,220.14a271.6,271.6,0,0,1,28.71-6.52q16-2.81,33.73-5.28L834,205a2.15,2.15,0,0,1,1.34,4h0a2.16,2.16,0,0,1-3.19-1.85q-.43-19.65-9.41-29.6-9.78-10.83-33.55-10.83a55.52,55.52,0,0,0-27.48,7q-11.75,6.53-16.8,21a2.14,2.14,0,0,1-2.66,1.32L712,186.78a2.15,2.15,0,0,1-1.43-2.69,70.65,70.65,0,0,1,26.24-36.87q19.82-14.44,52.76-14.44,25.53,0,44.47,8.71a55.26,55.26,0,0,1,27.75,27.57,57.69,57.69,0,0,1,5.63,19.73,220,220,0,0,1,1.06,22.37v115a2.15,2.15,0,0,1-2.15,2.15H838a2.15,2.15,0,0,1-2.15-2.15V289.58a2.15,2.15,0,0,1,3.58-1.61l1.47,1.31a2.15,2.15,0,0,1,.46,2.66q-11.61,20.7-29.2,31Q794,333.57,767.37,333.58Zm6.52-30.12q15.68,0,27-5.55A52.26,52.26,0,0,0,819,283.73a44.75,44.75,0,0,0,9-17.89s0-.1,0-.16a64.83,64.83,0,0,0,3.41-18.94q.35-8.22.42-13.88a2.15,2.15,0,0,1,2.89-2l1.24.46a2.15,2.15,0,0,1-.43,4.15q-12.62,1.9-23.41,3.5-14.26,2.12-25.8,4.14A165,165,0,0,0,765.79,248a67,67,0,0,0-13.48,6.34,29.77,29.77,0,0,0-9.33,9,23.08,23.08,0,0,0-3.44,12.85,26.4,26.4,0,0,0,3.7,13.66,25.87,25.87,0,0,0,11.28,9.95Q762.08,303.45,773.89,303.46Z"/><path fill="#f8f8f8" d="M888.78,326.14V140.21a2.15,2.15,0,0,1,2.15-2.15h28.64a2.15,2.15,0,0,1,2.15,2.15v50.65a2.16,2.16,0,0,0,2.15,2.16h.1a2.15,2.15,0,0,1,2.15,2.15v131a2.15,2.15,0,0,1-2.15,2.15h-33A2.15,2.15,0,0,1,888.78,326.14Zm135.84,2.15a2.15,2.15,0,0,1-2.15-2.15V234.76a146.54,146.54,0,0,0-1.85-22.81,71.08,71.08,0,0,0-7-21.75A42.28,42.28,0,0,0,999,174q-9.44-6.17-24.58-6.16a53.21,53.21,0,0,0-18.67,3.26,38.92,38.92,0,0,0-15.41,10.48q-6.6,7.22-10.39,19-3.45,10.72-3.76,25.66a2.15,2.15,0,0,1-2.9,2l-18.62-7a2.18,2.18,0,0,1-1.4-2q.27-25,9.68-44.2a73,73,0,0,1,27.83-30.91Q958.88,133,984.6,133q19.73,0,33.12,6.34a61.33,61.33,0,0,1,21.75,16.65,77.29,77.29,0,0,1,12.77,22.46,116.18,116.18,0,0,1,6,23.77,154.82,154.82,0,0,1,1.58,20.44V326.14a2.15,2.15,0,0,1-2.15,2.15Z"/><path fill="#f8f8f8" d="M1104.43,410l31.79-86.54a2.15,2.15,0,0,1,4.17.7l.11,6.55a2.15,2.15,0,0,1-4.14.84L1059,141a2.15,2.15,0,0,1,2-3h33.74a2.15,2.15,0,0,1,2,1.36L1157,292.77a2.15,2.15,0,0,1-2,2.94h-5a2.15,2.15,0,0,1-2-2.91l57.57-153.35a2.15,2.15,0,0,1,2-1.39h32.73a2.16,2.16,0,0,1,2,2.92L1139,411.46a2.16,2.16,0,0,1-2,1.38h-30.49A2.15,2.15,0,0,1,1104.43,410Z"/><path fill="#f8f8f8" d="M1373.26,69.36h-21.8c-4.81,0-10.08.18-15.77.53a57.33,57.33,0,0,0-17.17,3.87A42.14,42.14,0,0,0,1302.67,85a40.18,40.18,0,0,0-8.54,14.71A68.06,68.06,0,0,0,1291,116q-.52,8.19-.53,15.41V326.15a2.15,2.15,0,0,0,2.16,2.14h32.51a2.14,2.14,0,0,0,2.15-2.14V124.32q0-11.8,6.43-18.23t19.46-6.43h20a2.16,2.16,0,0,0,2.16-2.15v-26A2.16,2.16,0,0,0,1373.26,69.36Zm0,68.7H1261.13a2.15,2.15,0,0,0-2.14,2.15V165.5a2.14,2.14,0,0,0,2.14,2.15h112.13a2.16,2.16,0,0,0,2.16-2.15V140.21A2.16,2.16,0,0,0,1373.26,138.06Z"/><path fill="#f8f8f8" d="M1431.61,140.21V326.15a2.15,2.15,0,0,1-2.16,2.14H1397a2.15,2.15,0,0,1-2.16-2.14V140.21a2.16,2.16,0,0,1,2.16-2.15h32.5A2.16,2.16,0,0,1,1431.61,140.21Z"/><rect fill="#f8f8f8" x="1394.79" y="71.12" width="36.82" height="35.76" rx="2.16"/><path fill="#f8f8f8" d="M1451.65,326.14V71.52a2.16,2.16,0,0,1,2.15-2.16h32.51a2.16,2.16,0,0,1,2.15,2.16V326.14a2.15,2.15,0,0,1-2.15,2.15H1453.8A2.15,2.15,0,0,1,1451.65,326.14Z"/><path fill="#f8f8f8" d="M1603.66,333.58q-28.37,0-49.76-12.42a86.13,86.13,0,0,1-33.29-34.7q-11.89-22.29-11.89-51.7,0-31.17,11.71-54.07t32.68-35.41q21-12.51,48.79-12.5,29.05,0,49.49,13.47T1682,184.56q9.81,24.09,8.13,57a2.17,2.17,0,0,1-2.16,2h-32.62a2.15,2.15,0,0,1-2.15-2.15V230.18q-.36-33.1-12.6-49t-37.25-15.85q-27.66,0-41.57,17.44t-13.92,50.38q0,31.35,13.92,48.52t40.16,17.18q17.26,0,29.86-7.84a52.11,52.11,0,0,0,18.81-20.82,2.18,2.18,0,0,1,2.58-1.08l32,10.16a2.14,2.14,0,0,1,1.31,2.94,84.69,84.69,0,0,1-32.65,37.33A93.19,93.19,0,0,1,1603.66,333.58Zm-67.81-92.16V217a2.15,2.15,0,0,1,2.15-2.15h131.5a2.15,2.15,0,0,1,2.15,2.15v24.41a2.15,2.15,0,0,1-2.15,2.15H1538A2.15,2.15,0,0,1,1535.85,241.42Z"/><path fill="#fbd345" d="M382.23,117.18,292.63,4.1C286.94-3.08,277.32-.46,274.46,9l-25,83c-1.86,6.18-6.88,9.87-12,8.87C107.44,75.74,7.32,83.83.38,124.31c-6.51,38,70.94,93.24,185,137.54a75,75,0,0,1,30.1,22.22L323.91,413.82c5.62,6.73,14.82,4.27,17.82-4.78l27.7-83.64c1.95-5.88,6.79-9.36,11.78-8.46,123.64,22.18,217.4,13.31,224.11-25.82,6.15-35.9-62.72-87.24-166.67-130.17C417.4,152.17,398.07,137.17,382.23,117.18Zm85.7,136.06c-4.54,26.48-82.13,27.57-173.3,2.42s-161.41-67-156.86-93.46,82.13-27.57,173.3-2.44S472.48,226.75,467.93,253.24Z"/></g></g></svg>