<svg xmlns="http://www.w3.org/2000/svg" viewBox="0 0 461.55 461.55"><defs><style>.cls-1{fill:#231f20;}</style></defs><g id="Layer_2" data-name="Layer 2"><g id="Layer_2-2" data-name="Layer 2"><path class="cls-1" d="M455.06,262.72l-33.6-24.1a15.53,15.53,0,0,1-.6-24.81l32.41-25.66a15.53,15.53,0,0,0,4.56-18.47L428.69,103.8a15.57,15.57,0,0,0-16.76-9l-40.77,6.75a15.54,15.54,0,0,1-18-17.13L358,43.3A15.52,15.52,0,0,0,348.12,27l-67.18-26a15.51,15.51,0,0,0-18.22,5.44l-24.1,33.6a15.53,15.53,0,0,1-24.81.6L188.15,8.28a15.53,15.53,0,0,0-18.47-4.56L103.8,32.86a15.57,15.57,0,0,0-9,16.76l6.75,40.77a15.54,15.54,0,0,1-17.13,18L43.3,103.59A15.51,15.51,0,0,0,27,113.43l-26,67.18a15.51,15.51,0,0,0,5.44,18.22l33.6,24.1a15.53,15.53,0,0,1,.6,24.81L8.28,273.4a15.52,15.52,0,0,0-4.56,18.47l29.14,65.88a15.55,15.55,0,0,0,16.74,9l40.79-6.72a15.54,15.54,0,0,1,18,17.13l-4.77,41a15.51,15.51,0,0,0,9.82,16.29l67.18,26a15.55,15.55,0,0,0,18.24-5.45l24.08-33.61a15.54,15.54,0,0,1,24.83-.58l25.66,32.41a15.52,15.52,0,0,0,18.47,4.56l65.88-29.14a15.55,15.55,0,0,0,9-16.74l-6.72-40.79a15.54,15.54,0,0,1,17.13-18L418.25,358a15.53,15.53,0,0,0,16.29-9.84l26-67.18A15.51,15.51,0,0,0,455.06,262.72ZM230.78,329.35a98.59,98.59,0,1,1,98.59-98.58A98.57,98.57,0,0,1,230.78,329.35Z"/></g></g></svg>