<svg xmlns="http://www.w3.org/2000/svg" viewBox="0 0 752.67 752.67"><defs><style>.cls-1{fill:#ffffff;}.cls-2{fill:none;stroke:#231f20;stroke-miterlimit:10;stroke-width:66px;}</style></defs><g id="Layer_2" data-name="Layer 2"><g id="Layer_2-2" data-name="Layer 2"><path fill="#ffffff" d="M354.76,494.41a28.13,28.13,0,0,1-27.83-32.16q1-6.67,2.33-13.22a141.18,141.18,0,0,1,15.12-40.62q9.18-18,20.4-28.72a309.89,309.89,0,0,1,25.15-21.42q13.94-10.71,30.94-28.72,13.94-15.3,18.36-30.43a115.44,115.44,0,0,0,4.41-32.46,89.5,89.5,0,0,0-2.38-21.08,40,40,0,0,0-8.49-17,51.63,51.63,0,0,0-24.48-17.85,95.52,95.52,0,0,0-32-5.27A98.5,98.5,0,0,0,349.65,209a56.51,56.51,0,0,0-21.58,11.05,48.25,48.25,0,0,0-15,20,60.71,60.71,0,0,0-2.06,6.1,27.84,27.84,0,0,1-26.94,20.08H256.67A28.17,28.17,0,0,1,230,229.41a169.47,169.47,0,0,1,10.92-26.15q15.13-29.06,39.95-46.4a138.58,138.58,0,0,1,43.68-21.41,172.26,172.26,0,0,1,48.78-7.14,212.8,212.8,0,0,1,70.53,11.55,123.41,123.41,0,0,1,55.24,38.08,120,120,0,0,1,23.29,40.11,138.88,138.88,0,0,1,8,46.23q0,35-15.13,63.91A239.13,239.13,0,0,1,477,381.56Q466.07,393.11,456.22,402T438,419.12a89,89,0,0,0-13.76,17.5q-9.52,16-11.22,27-.39,2.52-.69,5.51a28.1,28.1,0,0,1-28,25.25Zm-29.41,104.8V565.36a28.12,28.12,0,0,1,28.11-28.12h29.77a28.12,28.12,0,0,1,28.12,28.12v33.85a28.11,28.11,0,0,1-28.12,28.11H353.46A28.11,28.11,0,0,1,325.35,599.21Z"/><circle class="cls-2" cx="376.34" cy="376.34" r="343.34"/></g></g></svg>