<svg xmlns="http://www.w3.org/2000/svg" viewBox="0 0 178.83 121.33"><defs><style>.cls-1{fill:#fff;}</style></defs><g id="Layer_2" data-name="Layer 2"><g id="Layer_2-2" data-name="Layer 2"><path class="cls-1" d="M142.71,30.83A43,43,0,0,0,101.49,0H43A43,43,0,0,0,0,43V78.37a43,43,0,0,0,43,43h58.52a42.93,42.93,0,0,0,43-43V43A43,43,0,0,0,142.71,30.83ZM88.49,65.69,61.76,81.12a5.8,5.8,0,0,1-8.7-5V45.24a5.8,5.8,0,0,1,8.7-5L88.49,55.64A5.8,5.8,0,0,1,88.49,65.69Z"/><path class="cls-1" d="M158.06,22l-46.25,26.7a13.85,13.85,0,0,0,0,24l46.25,26.7a13.85,13.85,0,0,0,20.77-12V34A13.85,13.85,0,0,0,158.06,22Z"/></g></g></svg>