<svg xmlns="http://www.w3.org/2000/svg" viewBox="0 0 381.01 343.19"><defs><style>.cls-1{fill:#fff;}</style></defs><g id="Layer_2" data-name="Layer 2"><g id="Layer_2-2" data-name="Layer 2"><path class="cls-1" d="M374.25,268.4,233.68,24.93c-19.19-33.24-67.17-33.24-86.36,0L6.75,268.4c-19.19,33.24,4.8,74.79,43.18,74.79H331.07C369.45,343.19,393.44,301.64,374.25,268.4ZM176.06,88.26A15.14,15.14,0,0,1,187,83.64h7a15.24,15.24,0,0,1,15.24,15.69l-3.5,120a15.25,15.25,0,0,1-30.48,0l-3.5-120A15.15,15.15,0,0,1,176.06,88.26ZM190.5,294.15c-12.7,0-22.27-9.95-22.27-23.14s9.57-23.15,22.27-23.15c13.11,0,22.27,9.52,22.27,23.15C212.77,284.42,203.4,294.15,190.5,294.15Z"/></g></g></svg>