<svg xmlns="http://www.w3.org/2000/svg" viewBox="0 0 381.01 343.19"><defs><style>.cls-1{fill:#fff;}</style></defs><g id="Layer_2" data-name="Layer 2"><g id="Layer_2-2" data-name="Layer 2"><path class="cls-1" d="M374.25,268.4,233.68,24.93c-19.19-33.24-67.17-33.24-86.36,0L6.75,268.4c-19.19,33.24,4.8,74.79,43.18,74.79H331.07C369.45,343.19,393.44,301.64,374.25,268.4ZM187,88.64h7a10.24,10.24,0,0,1,10.24,10.54l-3.5,120a10.24,10.24,0,0,1-20.48,0l-3.5-120A10.24,10.24,0,0,1,187,88.64Zm3.5,200.51c-10.24,0-17.27-7.9-17.27-18.14,0-10.54,7.32-18.15,17.27-18.15,10.54,0,17.27,7.61,17.27,18.15C207.77,281.25,201,289.15,190.5,289.15Z"/></g></g></svg>